<svg id="icons" enable-background="new 0 0 64 64" height="512" viewBox="0 0 64 64" width="512" xmlns="http://www.w3.org/2000/svg"><path d="m1 7.005h62v52.989h-62z" fill="#e6e9ed"/><path d="m32 45.006c1.659 0 3 1.34 3 3 0 1.65-1.341 3-3 3-1.66 0-3-1.35-3-3 0-1.66 1.34-3 3-3z" fill="#5d9cec"/><path d="m12.52 45.006c1.66 0 3 1.34 3 3 0 1.65-1.34 3-3 3s-3-1.35-3-3c0-1.66 1.339-3 3-3z" fill="#5d9cec"/><path d="m51.479 45.006c1.66 0 3 1.34 3 3 0 1.65-1.34 3-3 3s-3-1.35-3-3c0-1.66 1.34-3 3-3z" fill="#5d9cec"/><path d="m63 7.005h-62v-2c0-1.11.89-2 2-2h58c1.1 0 2 .89 2 2z" fill="#ccd1d9"/><path d="m4.026 6.003c-.553 0-1.005-.448-1.005-1s.442-1 .994-1h.011c.552 0 1 .448 1 1s-.448 1-1 1z" fill="#e6e9ed"/><path d="m7.026 6.003c-.553 0-1.005-.448-1.005-1s.442-1 .994-1h.011c.552 0 1 .448 1 1s-.448 1-1 1z" fill="#e6e9ed"/><path d="m10.026 6.003c-.553 0-1.005-.448-1.005-1s.442-1 .994-1h.011c.552 0 1 .448 1 1s-.448 1-1 1z" fill="#e6e9ed"/><path d="m19.016 55.016h-12.995c-.553 0-1-.447-1-1s.447-1 1-1h12.994c.553 0 1 .447 1 1s-.447 1-.999 1z" fill="#ccd1d9"/><path d="m61.999 60.994h-59.999c-.553 0-1-.447-1-1s.447-1 1-1h59.999c.553 0 1 .447 1 1s-.447 1-1 1z" fill="#e6e9ed"/><path d="m58.014 55.016h-12.994c-.553 0-1-.447-1-1s.447-1 1-1h12.994c.553 0 1 .447 1 1s-.448 1-1 1z" fill="#ccd1d9"/><path d="m38.502 55.016h-12.994c-.553 0-1-.447-1-1s.447-1 1-1h12.994c.553 0 1 .447 1 1s-.447 1-1 1z" fill="#ccd1d9"/><path d="m35.52 58.016h-7.031c-.553 0-1-.447-1-1s.447-1 1-1h7.031c.553 0 1 .447 1 1s-.448 1-1 1z" fill="#ccd1d9"/><path d="m55.02 58.016h-7.006c-.553 0-1-.447-1-1s.447-1 1-1h7.006c.553 0 1 .447 1 1s-.448 1-1 1z" fill="#ccd1d9"/><path d="m16.02 58.016h-6.999c-.553 0-1-.447-1-1s.447-1 1-1h6.998c.553 0 1 .447 1 1s-.447 1-.999 1z" fill="#ccd1d9"/><path d="m59.02 10.019h-54c-.553 0-1 .448-1 1v29.991c0 .553.447 1 1 1h54c.553 0 1-.447 1-1v-29.991c0-.553-.448-1-1-1z" fill="#5d9cec"/><g fill="#4a89dc"><path d="m54.008 22.007h-19.998c-.553 0-1-.448-1-1s.447-1 1-1h19.998c.553 0 1 .448 1 1s-.447 1-1 1z"/><path d="m54.008 25.015h-19.998c-.553 0-1-.448-1-1s.447-1 1-1h19.998c.553 0 1 .448 1 1s-.447 1-1 1z"/><path d="m44.008 28.023h-9.998c-.553 0-1-.448-1-1s.447-1 1-1h9.998c.553 0 1 .448 1 1s-.447 1-1 1z"/><path d="m40.004 33.014h-5.992c-.553 0-1-.447-1-1 0-.552.447-1 1-1h5.992c.553 0 1 .448 1 1 0 .553-.447 1-1 1z"/><path d="m43.998 32.016h-1.004c-.553 0-1-.448-1-1 0-.553.447-1 1-1h1.004c.553 0 1 .447 1 1 0 .552-.447 1-1 1z"/><path d="m43.999 34.016c-.366 0-.72-.201-.895-.551l-1.004-2c-.248-.493-.049-1.095.445-1.343.495-.246 1.096-.048 1.342.445l1.004 2c.248.494.049 1.095-.445 1.343-.143.072-.297.106-.447.106z"/><path d="m43.998 34.016h-1c-.553 0-1-.447-1-1 0-.552.447-1 1-1h1c.553 0 1 .447 1 1 0 .552-.447 1-1 1z"/></g><path d="m14.01 17.006h10.01c1.1 0 2 .9 2 2v6.029h-14.01v-6.029c0-1.1.899-2 2-2z" fill="#f5f7fa"/><path d="m21 36.965 1.01-.959-2 6h-2.01l-1.99-6 .99.959 2-.959z" fill="#5d9cec"/><path d="m28.01 38.996v3.01h-8l2-6h3c1.66 0 3 1.34 3 2.99z" fill="#f5f7fa"/><path d="m19.01 34.006c1.069 0 2.09-.24 3-.68v2.68l-1.01.959-2-.959-2 .959-.99-.959v-2.68c.91.44 1.929.68 3 .68z" fill="#87bcf4"/><path d="m16.01 36.006 1.99 6h-7.99v-3.01c0-1.65 1.34-2.99 3-2.99z" fill="#f5f7fa"/><path d="m12.01 25.035h14.01l-.01 1.971c0 2.789-1.63 5.199-4 6.32-.91.439-1.931.68-3 .68-1.07 0-2.09-.24-3-.68-2.36-1.121-4-3.531-4-6.32z" fill="#eac6bb"/><path d="m19 24.015c-.553 0-1-.448-1-1v-4.012c0-.552.447-1 1-1s1 .448 1 1v4.012c0 .552-.447 1-1 1z" fill="#ed5565"/><path d="m21.001 22.022h-4.002c-.553 0-1-.448-1-1s.447-1 1-1h4.002c.553 0 1 .448 1 1s-.447 1-1 1z" fill="#ed5565"/></svg>