<svg id="Layer_35" enable-background="new 0 0 64 64" height="512" viewBox="0 0 64 64" width="512" xmlns="http://www.w3.org/2000/svg"><circle cx="53" cy="45" fill="#e6e9ed" r="9"/><circle cx="32" cy="53" fill="#e6e9ed" r="9"/><circle cx="11" cy="45" fill="#e6e9ed" r="9"/><path d="m35.6 56.99c1.05.63 1.92 1.53 2.52 2.61-1.6 1.49-3.76 2.4-6.12 2.4s-4.52-.91-6.12-2.4c1.2-2.15 3.49-3.6 6.12-3.6 1.32 0 2.54.36 3.6.99z" fill="#fcd770"/><path d="m14.6 48.99c1.05.63 1.92 1.53 2.52 2.61-1.6 1.49-3.76 2.4-6.12 2.4s-4.52-.91-6.12-2.4c1.2-2.15 3.49-3.6 6.12-3.6 1.32 0 2.54.36 3.6.99z" fill="#b4dd7f"/><path d="m56.6 48.99c1.05.63 1.92 1.53 2.52 2.61-1.6 1.49-3.76 2.4-6.12 2.4s-4.52-.91-6.12-2.4c1.2-2.15 3.49-3.6 6.12-3.6 1.32 0 2.54.36 3.6.99z" fill="#b4dd7f"/><g fill="#fcd770"><circle cx="4" cy="8" r="2"/><circle cx="10" cy="4" r="2"/><circle cx="54" cy="4" r="2"/><circle cx="60" cy="8" r="2"/></g><path d="m25 32h14c0 3.31-2.69 6-6 6h-1-1c-3.31 0-6-2.69-6-6z" fill="#969faa"/><path d="m41 28c1.1 0 2 .9 2 2 0 .55-.22 1.05-.59 1.41-.36.37-.86.59-1.41.59h-2-14-2c-1.1 0-2-.9-2-2 0-.55.22-1.05.59-1.41.36-.37.86-.59 1.41-.59h1.3 4.7 6 4.7z" fill="#ccd1d9"/><path d="m45.86 14c-1.05-7.29-7.71-12.77-15.46-11.91-6.27.7-11.38 5.68-12.26 11.91-.01.1-.03.21-.04.32-.15 1.26-.13 2.5.05 3.68.2 1.41.61 2.76 1.21 4 .7 1.49 1.67 2.83 2.84 3.98l2.8 2.02h14l2.79-2.02c1.17-1.13 2.14-2.48 2.84-3.98h.01c.6-1.24 1.01-2.59 1.21-4 .1-.65.15-1.32.15-2s-.05-1.35-.14-2z" fill="#ffeaa7"/><path d="m30.65 18.09v.01l-1.65 9.9h-4.7c-.25-.37-.56-.7-.93-.99-.41-.32-.81-.67-1.17-1.03.85-4.12 4.24-7.32 8.45-7.89z" fill="#ff826e"/><path d="m41.79 25.98c-.41.41-.84.78-1.29 1.13-.32.25-.58.56-.8.89h-4.7l-1.65-9.9v-.01c4.21.57 7.6 3.76 8.44 7.89z" fill="#ff826e"/><path d="m33.35 18.1 1.65 9.9h-6l1.65-9.9v-.01c.44-.06.89-.09 1.35-.09s.91.03 1.35.09z" fill="#e6e9ed"/><circle cx="11" cy="44" fill="#f0d0b4" r="4"/><circle cx="32" cy="52" fill="#f0d0b4" r="4"/><circle cx="53" cy="44" fill="#f0d0b4" r="4"/><circle cx="32" cy="13" fill="#f0d0b4" r="5"/><path d="m54 35.051v-9.051c0-2.757-2.243-5-5-5h-2.855c.229-.649.399-1.319.537-2h9.318c2.757 0 5-2.243 5-5v-3.184c1.161-.414 2-1.514 2-2.816 0-1.654-1.346-3-3-3s-3 1.346-3 3c0 1.302.839 2.402 2 2.816v3.184c0 1.654-1.346 3-3 3h-9.057c.022-.333.057-.663.057-1 0-.336-.031-.667-.053-1h3.053c2.757 0 5-2.243 5-5v-3.184c1.161-.414 2-1.514 2-2.816 0-1.654-1.346-3-3-3s-3 1.346-3 3c0 1.302.839 2.402 2 2.816v3.184c0 1.654-1.346 3-3 3h-3.311c-.642-3.133-2.269-6.015-4.689-8.181-3.222-2.882-7.383-4.202-11.715-3.724-6.432.715-11.717 5.636-12.986 11.905h-3.299c-1.654 0-3-1.346-3-3v-3.184c1.161-.414 2-1.514 2-2.816 0-1.654-1.346-3-3-3s-3 1.346-3 3c0 1.302.839 2.402 2 2.816v3.184c0 2.757 2.243 5 5 5h3.037c-.044.672-.044 1.34 0 2h-9.037c-1.654 0-3-1.346-3-3v-3.184c1.161-.414 2-1.514 2-2.816 0-1.654-1.346-3-3-3s-3 1.346-3 3c0 1.302.839 2.402 2 2.816v3.184c0 2.757 2.243 5 5 5h9.302c.138.681.326 1.349.556 2h-2.858c-2.757 0-5 2.243-5 5v9.051c-5.046.503-9 4.773-9 9.949 0 5.514 4.486 10 10 10s10-4.486 10-10c0-5.176-3.954-9.446-9-9.949v-9.051c0-1.654 1.346-3 3-3h3.739c.824 1.555 1.921 2.973 3.277 4.179-1.17.41-2.016 1.513-2.016 2.821 0 1.654 1.346 3 3 3h1.08c.488 3.386 3.401 6 6.92 6v4.051c-5.046.504-9 4.773-9 9.949 0 5.514 4.486 10 10 10s10-4.486 10-10c0-5.176-3.954-9.446-9-9.949v-4.051c3.519 0 6.432-2.614 6.92-6h1.08c1.654 0 3-1.346 3-3 0-1.317-.858-2.426-2.041-2.828 1.357-1.205 2.467-2.613 3.294-4.172h3.747c1.654 0 3 1.346 3 3v9.051c-5.046.504-9 4.773-9 9.949 0 5.514 4.486 10 10 10s10-4.486 10-10c0-5.176-3.954-9.446-9-9.949zm6-28.051c.551 0 1 .448 1 1s-.449 1-1 1-1-.448-1-1 .449-1 1-1zm-6-4c.551 0 1 .448 1 1s-.449 1-1 1-1-.448-1-1 .449-1 1-1zm-44 0c.551 0 1 .448 1 1s-.449 1-1 1-1-.448-1-1 .449-1 1-1zm-6 4c.551 0 1 .448 1 1s-.449 1-1 1-1-.448-1-1 .449-1 1-1zm2.208 44.391c1.125-1.491 2.896-2.391 4.792-2.391s3.667.9 4.792 2.391c-1.338 1.005-2.994 1.609-4.792 1.609s-3.454-.604-4.792-1.609zm1.792-7.391c0-1.654 1.346-3 3-3s3 1.346 3 3-1.346 3-3 3-3-1.346-3-3zm11 1c0 1.893-.664 3.633-1.768 5.004-.792-.986-1.796-1.763-2.931-2.278 1.034-.917 1.699-2.239 1.699-3.726 0-2.757-2.243-5-5-5s-5 2.243-5 5c0 1.487.665 2.809 1.699 3.726-1.135.516-2.139 1.292-2.931 2.278-1.104-1.371-1.768-3.111-1.768-5.004 0-4.411 3.589-8 8-8s8 3.589 8 8zm8.208 14.391c1.125-1.491 2.896-2.391 4.792-2.391s3.667.9 4.792 2.391c-1.338 1.005-2.994 1.609-4.792 1.609s-3.454-.604-4.792-1.609zm1.792-7.391c0-1.654 1.346-3 3-3s3 1.346 3 3-1.346 3-3 3-3-1.346-3-3zm11 1c0 1.893-.664 3.633-1.768 5.004-.792-.986-1.796-1.763-2.931-2.278 1.034-.917 1.699-2.239 1.699-3.726 0-2.757-2.243-5-5-5s-5 2.243-5 5c0 1.487.665 2.809 1.699 3.726-1.135.516-2.139 1.292-2.931 2.278-1.104-1.371-1.768-3.111-1.768-5.004 0-4.411 3.589-8 8-8s8 3.589 8 8zm-20.908-38.568c.692-5.918 5.493-10.69 11.415-11.348 3.762-.419 7.369.728 10.16 3.226 2.753 2.464 4.333 5.997 4.333 9.69 0 2.949-.988 5.727-2.76 7.982-1.16-2.948-3.549-5.24-6.479-6.313 1.363-1.101 2.239-2.784 2.239-4.669 0-3.309-2.691-6-6-6s-6 2.691-6 6c0 1.885.876 3.568 2.24 4.669-2.93 1.074-5.32 3.366-6.48 6.314-2.092-2.668-3.076-6.062-2.668-9.551zm16.755 12.568-1.269-7.612c2.928.883 5.279 3.224 6.101 6.251-.257.23-.509.464-.787.676-.245.188-.466.423-.682.686h-3.363zm-11.07 0c-.237-.28-.493-.546-.786-.775-.237-.186-.446-.396-.668-.596.825-3.022 3.174-5.36 6.099-6.242l-1.269 7.613zm3.223-14c0-2.206 1.794-4 4-4s4 1.794 4 4-1.794 4-4 4-4-1.794-4-4zm3.51 6.022c.163-.009.325-.022.49-.022s.327.013.49.022l1.33 7.978h-3.64zm1.49 17.978h-2c-2.414 0-4.434-1.721-4.899-4h11.798c-.465 2.279-2.485 4-4.899 4zm8-6h-18c-.551 0-1-.448-1-1s.449-1 1-1h18c.551 0 1 .448 1 1s-.449 1-1 1zm7.208 20.391c1.125-1.491 2.896-2.391 4.792-2.391s3.667.9 4.792 2.391c-1.338 1.005-2.994 1.609-4.792 1.609s-3.454-.604-4.792-1.609zm1.792-7.391c0-1.654 1.346-3 3-3s3 1.346 3 3-1.346 3-3 3-3-1.346-3-3zm9.232 6.004c-.792-.986-1.796-1.763-2.931-2.278 1.034-.917 1.699-2.239 1.699-3.726 0-2.757-2.243-5-5-5s-5 2.243-5 5c0 1.487.665 2.809 1.699 3.726-1.135.516-2.139 1.292-2.931 2.278-1.104-1.371-1.768-3.111-1.768-5.004 0-4.411 3.589-8 8-8s8 3.589 8 8c0 1.893-.664 3.633-1.768 5.004z"/><path d="m40.588 18.7 1.908.6c.219-.695.369-1.419.445-2.151l-1.989-.207c-.063.598-.185 1.19-.364 1.758z"/><path d="m41.68 10.771c-.35-.645-.764-1.257-1.233-1.817l-1.534 1.283c.383.458.723.959 1.009 1.487z"/><path d="m40.959 15.143 1.991-.188c-.069-.729-.211-1.455-.424-2.155l-1.914.58c.175.573.291 1.166.347 1.763z"/></svg>