<?xml version="1.0" standalone="no"?>
<!DOCTYPE svg PUBLIC "-//W3C//DTD SVG 20010904//EN"
 "http://www.w3.org/TR/2001/REC-SVG-20010904/DTD/svg10.dtd">
<svg version="1.0" xmlns="http://www.w3.org/2000/svg"
 width="242.000000pt" height="264.000000pt" viewBox="0 0 242.000000 264.000000"
 preserveAspectRatio="xMidYMid meet">
<metadata>
Created by potrace 1.16, written by Peter Selinger 2001-2019
</metadata>
<g transform="translate(0.000000,264.000000) scale(0.100000,-0.100000)"
fill="#000000" stroke="none">
<path d="M660 2574 c-67 -18 -117 -56 -150 -115 -24 -41 -25 -54 -27 -208 -2
-90 -4 -166 -6 -168 -2 -2 -17 3 -32 11 -83 43 -206 23 -280 -45 -81 -75 -78
-47 -72 -746 6 -665 7 -674 61 -797 53 -119 160 -245 275 -322 178 -120 417
-173 641 -144 340 44 583 208 733 496 38 74 83 130 263 334 242 274 243 275
255 327 27 122 -82 236 -226 236 -84 0 -134 -27 -226 -119 -41 -41 -76 -74
-80 -74 -3 0 -8 197 -11 439 -5 429 -5 439 -27 485 -44 90 -144 143 -251 133
-31 -2 -70 -12 -87 -20 l-30 -16 -6 78 c-8 129 -65 205 -176 238 -85 24 -172
5 -263 -59 -14 -10 -21 -8 -40 9 -54 51 -153 71 -238 47z m130 -90 c22 -9 50
-30 61 -46 21 -29 22 -41 27 -489 l5 -459 48 0 49 0 0 454 0 453 23 34 c44 67
135 88 197 47 76 -52 72 -24 79 -529 l6 -454 50 0 50 0 -4 310 -3 311 27 32
c68 81 164 83 235 7 25 -26 25 -28 31 -278 4 -139 7 -367 8 -508 l1 -256 45
-13 44 -12 128 121 c87 82 139 124 163 131 78 22 160 -34 160 -110 0 -40 -14
-57 -386 -477 -59 -66 -94 -118 -127 -185 -105 -215 -288 -359 -533 -420 -129
-32 -337 -32 -447 0 -262 75 -458 264 -511 493 -12 51 -17 185 -22 669 -6 584
-5 606 13 640 21 38 90 80 132 80 49 0 108 -38 130 -84 19 -39 21 -61 21 -249
l0 -207 51 0 51 0 -2 438 c-1 240 -2 447 -1 459 1 29 48 83 86 99 40 18 67 17
115 -2z"/>
<path d="M900 1226 c0 -43 0 -43 -41 -50 -23 -4 -66 -18 -95 -32 l-54 -25 -50
42 -51 43 -26 -26 -26 -27 46 -43 47 -43 -30 -45 c-17 -24 -36 -63 -41 -87
-11 -41 -12 -42 -58 -45 -44 -3 -46 -5 -49 -35 -3 -31 -3 -32 45 -35 47 -3 48
-3 66 -53 10 -27 30 -65 43 -83 l25 -32 -48 -44 c-48 -44 -48 -44 -29 -65 27
-30 45 -26 92 20 l42 42 35 -22 c19 -11 61 -27 93 -34 58 -13 59 -14 64 -53 5
-38 6 -39 45 -39 37 0 40 2 42 30 0 17 2 35 2 41 1 6 18 14 40 18 21 3 64 19
94 35 l56 29 46 -40 47 -41 26 27 27 27 -44 39 -44 38 32 63 c17 34 31 70 31
81 0 15 8 18 50 18 l50 0 0 34 c0 34 -1 35 -46 38 -45 3 -46 4 -62 53 -10 28
-28 66 -42 84 l-24 34 42 36 c23 20 42 41 42 46 0 6 -12 18 -26 28 -24 18 -25
18 -66 -17 -23 -20 -45 -36 -49 -36 -3 0 -31 11 -60 24 -30 14 -71 28 -91 31
-37 7 -38 8 -38 51 l0 44 -40 0 -40 0 0 -44z m143 -132 c52 -18 65 -30 48 -47
-18 -18 -13 -33 15 -52 19 -12 29 -14 37 -6 21 21 38 11 58 -35 27 -60 27
-140 0 -193 -24 -46 -24 -46 -51 -29 -16 10 -23 9 -45 -12 -22 -21 -23 -25
-10 -40 21 -24 20 -25 -32 -50 -67 -32 -179 -33 -247 -2 -41 19 -47 24 -36 37
11 13 9 20 -10 40 -18 19 -26 22 -36 14 -22 -18 -44 -2 -66 48 -26 59 -21 150
12 206 22 38 34 45 45 27 9 -15 19 -12 49 11 22 17 24 24 15 35 -40 48 149 84
254 48z"/>
</g>
</svg>
