<svg id="Layer_3" enable-background="new 0 0 64 64" height="512" viewBox="0 0 64 64" width="512" xmlns="http://www.w3.org/2000/svg"><g><path d="m41 28h-18c-1.105 0-2 .895-2 2v30c0 1.105.895 2 2 2h18c1.105 0 2-.895 2-2v-30c0-1.105-.895-2-2-2z" fill="#8892a0"/><path d="m25 32h14v22h-14z" fill="#c7e2fc"/><path d="m26 20h-24v-18h60v18h-24l-6 6z" fill="#669e4f"/><path d="m2 14.168c5.329 1.165 11.464 1.832 18 1.832 20.007 0 36.294-6.224 36.968-14h-54.968z" fill="#78b75b"/><g fill="#fff"><path d="m6 17h4c1.654 0 3-1.346 3-3v-6c0-1.654-1.346-3-3-3h-4c-.552 0-1 .448-1 1v10c0 .552.448 1 1 1zm1-10h3c.551 0 1 .449 1 1v6c0 .551-.449 1-1 1h-3z"/><path d="m15 17h6c.552 0 1-.448 1-1v-10c0-.552-.448-1-1-1h-6c-.552 0-1 .448-1 1v10c0 .552.448 1 1 1zm1-10h4v8h-4z"/><path d="m25 9.61 4.143 6.904c.184.307.512.486.857.486.088 0 .178-.012.267-.036.433-.12.733-.514.733-.964v-11h-2v7.39l-4.143-6.904c-.231-.385-.689-.568-1.125-.449-.432.119-.732.513-.732.963v11h2z"/><path d="m34 13h4v4h2v-11c0-.552-.448-1-1-1h-6c-.552 0-1 .448-1 1v11h2zm4-6v4h-4v-4z"/><path d="m51 17h7v-2h-6v-3h5v-2h-5v-3h6v-2h-7c-.552 0-1 .448-1 1v10c0 .552.448 1 1 1z"/><path d="m44 17h2v-10h3v-2h-8v2h3z"/></g><path d="m31 57h2v2h-2z" fill="#c7e2fc"/><path d="m60 45c-.153 0-.301.023-.448.045l-6.332-9.046c.48-.532.78-1.228.78-1.999 0-1.654-1.346-3-3-3s-3 1.346-3 3c0 .119.022.232.035.347l-13.945 6.507c-.541-.526-1.277-.854-2.09-.854s-1.549.328-2.09.854l-13.945-6.508c.013-.114.035-.227.035-.346 0-1.654-1.346-3-3-3s-3 1.346-3 3c0 .771.3 1.467.78 1.999l-6.332 9.046c-.147-.022-.295-.045-.448-.045-1.654 0-3 1.346-3 3s1.346 3 3 3 3-1.346 3-3c0-.771-.3-1.467-.78-1.999l6.332-9.046c.147.022.295.045.448.045.813 0 1.549-.328 2.09-.854l13.945 6.508c-.013.114-.035.227-.035.346 0 1.654 1.346 3 3 3s3-1.346 3-3c0-.119-.022-.232-.035-.347l13.945-6.508c.541.527 1.277.855 2.09.855.153 0 .301-.023.448-.045l6.332 9.046c-.48.532-.78 1.228-.78 1.999 0 1.654 1.346 3 3 3s3-1.346 3-3-1.346-3-3-3zm-56 4c-.551 0-1-.449-1-1s.449-1 1-1 1 .449 1 1-.449 1-1 1zm9-14c-.551 0-1-.449-1-1s.449-1 1-1 1 .449 1 1-.449 1-1 1zm19 9c-.551 0-1-.449-1-1s.449-1 1-1 1 .449 1 1-.449 1-1 1zm18-10c0-.551.449-1 1-1s1 .449 1 1-.449 1-1 1-1-.449-1-1zm10 15c-.551 0-1-.449-1-1s.449-1 1-1 1 .449 1 1-.449 1-1 1z" fill="#78b75b"/></g></svg>